<svg xmlns="http://www.w3.org/2000/svg" version="1.1" xmlns:xlink="http://www.w3.org/1999/xlink" xmlns:svgjs="http://svgjs.dev/svgjs" width="1000" height="623" viewBox="0 0 1000 623"><g transform="matrix(1,0,0,1,-0.6060606060606233,0.25222672064785456)"><svg viewBox="0 0 396 247" data-background-color="#ffffff" preserveAspectRatio="xMidYMid meet" height="623" width="1000" xmlns="http://www.w3.org/2000/svg" xmlns:xlink="http://www.w3.org/1999/xlink"><g id="tight-bounds" transform="matrix(1,0,0,1,0.2400000000000091,-0.09999999999999432)"><svg viewBox="0 0 395.52 247.2" height="247.2" width="395.52"><g><svg></svg></g><g><svg viewBox="0 0 395.52 247.2" height="247.2" width="395.52"><g transform="matrix(1,0,0,1,75.54432,80.5087572036474)"><svg viewBox="0 0 244.43135999999998 86.18248559270516" height="86.18248559270516" width="244.43135999999998"><g><svg viewBox="0 0 244.43135999999998 86.18248559270516" height="86.18248559270516" width="244.43135999999998"><g><svg viewBox="0 0 244.43135999999998 86.18248559270516" height="86.18248559270516" width="244.43135999999998"><g><svg viewBox="0 0 244.43135999999998 86.18248559270516" height="86.18248559270516" width="244.43135999999998"><g id="textblocktransform"><svg viewBox="0 0 244.43135999999998 86.18248559270516" height="86.18248559270516" width="244.43135999999998" id="textblock"><g><svg viewBox="0 0 244.43135999999998 86.18248559270516" height="86.18248559270516" width="244.43135999999998"><g transform="matrix(1,0,0,1,0,0)"><svg width="244.43135999999998" viewBox="2 -34.8 98.69 34.8" height="86.18248559270516" data-palette-color="#ba1405"><path d="M18.35 0L2.2 0Q2 0 2-0.25L2-0.25 2.05-34.6Q2.05-34.8 2.25-34.8L2.25-34.8 18.3-34.8Q18.5-34.8 18.5-34.55L18.5-34.55 18.5-28.95Q18.5-28.75 18.3-28.75L18.3-28.75 8.05-28.75 8.05-20.95 18.3-20.95Q18.5-20.95 18.5-20.75L18.5-20.75 18.55-15.1Q18.55-14.9 18.35-14.9L18.35-14.9 8.05-14.9 8.05-6.15 18.35-6.15Q18.55-6.15 18.55-5.9L18.55-5.9 18.55-0.2Q18.55 0 18.35 0L18.35 0ZM28.85 0L23.2 0Q23 0 23-0.25L23-0.25 23.1-34.6Q23.1-34.8 23.3-34.8L23.3-34.8 33.4-34.8Q36.1-34.8 38.37-33.48 40.65-32.15 42-29.93 43.35-27.7 43.35-24.9L43.35-24.9Q43.35-23.05 42.8-21.58 42.25-20.1 41.5-19.07 40.75-18.05 40.15-17.55L40.15-17.55Q42.85-14.55 42.85-10.5L42.85-10.5 42.9-0.25Q42.9 0 42.65 0L42.65 0 37 0Q36.8 0 36.8-0.15L36.8-0.15 36.8-10.5Q36.8-12.3 35.52-13.63 34.25-14.95 32.4-14.95L32.4-14.95 29.1-14.95 29.05-0.25Q29.05 0 28.85 0L28.85 0ZM29.1-28.8L29.1-20.95 33.4-20.95Q34.95-20.95 36.15-22.1 37.35-23.25 37.35-24.9L37.35-24.9Q37.35-26.5 36.17-27.65 35-28.8 33.4-28.8L33.4-28.8 29.1-28.8ZM52.99 0L47.34 0Q47.09 0 47.09-0.25L47.09-0.25 47.14-34.6Q47.14-34.8 47.34-34.8L47.34-34.8 52.95-34.8Q53.14-34.8 53.14-34.6L53.14-34.6 53.2-0.25Q53.2 0 52.99 0L52.99 0ZM63.44 0L57.79 0Q57.59 0 57.59-0.25L57.59-0.25 57.69-34.55Q57.69-34.8 57.89-34.8L57.89-34.8 63.49-34.8Q63.69-34.8 63.69-34.55L63.69-34.55 63.69-22.7 71.54-34.6Q71.69-34.8 71.89-34.8L71.89-34.8 77.64-34.8Q77.84-34.8 77.74-34.6L77.74-34.6 69.09-20.8 78.79-0.2Q78.89 0 78.54 0L78.54 0 72.44 0Q72.19 0 72.14-0.2L72.14-0.2 65.39-14.9 63.64-12.15 63.64-0.25Q63.64 0 63.44 0L63.44 0ZM86.89 0L81.24 0Q81.04 0 81.04-0.25L81.04-0.25 81.09-34.6Q81.09-34.8 81.34-34.8L81.34-34.8 86.89-34.8Q87.14-34.8 87.14-34.6L87.14-34.6 87.09-21 94.59-21 94.59-34.6Q94.59-34.8 94.79-34.8L94.79-34.8 100.34-34.8Q100.59-34.8 100.59-34.6L100.59-34.6 100.69-0.25Q100.69 0 100.44 0L100.44 0 94.84 0Q94.59 0 94.59-0.25L94.59-0.25 94.59-14.95 87.09-14.95 87.09-0.25Q87.09 0 86.89 0L86.89 0Z" opacity="1" transform="matrix(1,0,0,1,0,0)" fill="#ba1405" class="undefined-text-0" data-fill-palette-color="primary" id="text-0"></path></svg></g></svg></g></svg></g></svg></g></svg></g></svg></g></svg></g><g><path d="M245.816 0c68.262 0 123.6 55.338 123.6 123.6 0 68.262-55.338 123.6-123.6 123.6-49.19 0-91.669-28.736-111.566-70.336l4.324 0c19.6 39.387 60.26 66.45 107.242 66.45 66.116 0 119.714-53.598 119.714-119.714 0-66.116-53.598-119.714-119.714-119.714-46.981 0-87.641 27.063-107.242 66.45l-4.324 0c19.897-41.6 62.376-70.336 111.566-70.336z" fill="#ba1405" stroke="transparent" data-fill-palette-color="tertiary"></path></g></svg></g><defs></defs></svg><rect width="395.52" height="247.2" fill="none" stroke="none" visibility="hidden"></rect></g></svg></g></svg>